<?xml version="1.0" encoding="UTF-8"?><svg id="Layer_1" xmlns="http://www.w3.org/2000/svg" viewBox="0 0 353.77 99.61"><defs><style>.cls-1{fill:#c6943a;}.cls-1,.cls-2{stroke-width:0px;}.cls-2{fill:#505c5a;}</style></defs><path class="cls-1" d="M119.69,88.46c-1.72,0-3.14-.86-3.14-3.17v-6.16c0-2.36,1.45-3.21,3.15-3.21s2.91.84,2.91,2.98c0,.62-.03,1.03-.09,1.48l-1.93-.13c.05-.27.06-.48.06-.92,0-1.11-.22-1.5-.8-1.5-.46,0-.76.35-.76.89v6.91c0,.56.3.92.78.92s.78-.32.78-1.5c0-.33-.02-.62-.08-.96l1.88-.13c.08.33.16.75.16,1.48,0,2.15-1.27,3.01-2.93,3.01Z"/><path class="cls-1" d="M129.96,85.21c0,2.28-1.51,3.2-3.21,3.2s-3.26-.92-3.26-3.2v-6.03c0-2.37,1.54-3.26,3.26-3.26s3.21.86,3.21,3.26v6.03ZM127.41,78.61c0-.49-.29-.78-.68-.78-.43,0-.7.27-.7.78v7.16c0,.51.29.78.72.78s.67-.25.67-.76v-7.18Z"/><path class="cls-1" d="M140.44,88.22h-2.53v-6.59h-.08l-1.32,6.59h-1.59l-1.35-6.54h-.1v6.54h-2.21v-12.1h3.21l1.32,6.97h.08l1.43-6.97h3.13v12.1Z"/><path class="cls-1" d="M145.23,84.02h-.86v4.2h-2.53v-12.1h3.15c2.15,0,3.2.97,3.2,3.84,0,3.01-1.18,4.06-2.96,4.06ZM144.8,78.1h-.43v3.98h.45c.54,0,.89-.53.89-2.13,0-1.45-.32-1.85-.91-1.85Z"/><path class="cls-1" d="M155.03,88.22h-2.58l-.19-1.51h-1.83l-.17,1.51h-2.16l2-12.1h2.9l2.04,12.1ZM151.98,84.73l-.6-5.28h-.1l-.64,5.28h1.34Z"/><path class="cls-1" d="M158.63,88.46c-1.72,0-3.14-.86-3.14-3.17v-6.16c0-2.36,1.45-3.21,3.15-3.21s2.91.84,2.91,2.98c0,.62-.03,1.03-.09,1.48l-1.93-.13c.05-.27.06-.48.06-.92,0-1.11-.22-1.5-.8-1.5-.46,0-.76.35-.76.89v6.91c0,.56.3.92.78.92s.78-.32.78-1.5c0-.33-.02-.62-.08-.96l1.88-.13c.08.33.16.75.16,1.48,0,2.15-1.27,3.01-2.93,3.01Z"/><path class="cls-1" d="M168.67,78.1h-2.07v10.12h-2.55v-10.12h-2.05v-1.97h6.67v1.97Z"/><path class="cls-1" d="M178.39,78.1h-2.07v10.12h-2.55v-10.12h-2.05v-1.97h6.67v1.97Z"/><path class="cls-1" d="M183.31,88.22c-.1-.13-.16-.37-.17-.67-.03-1.08-.05-1.53-.08-2.26-.06-1.34-.32-1.8-.91-1.8h-.33v4.73h-2.53v-12.1h3.53c1.81,0,2.86,1.1,2.86,3.09,0,1.7-.41,2.75-1.77,3.2v.05c1.32.29,1.59,1.13,1.59,2.71v.91c0,1.13.1,1.78.24,2.15h-2.44ZM182.32,78.1h-.51v3.39h.48c.65,0,.91-.49.91-1.85,0-1.23-.35-1.54-.88-1.54Z"/><path class="cls-1" d="M193.14,88.22h-2.58l-.19-1.51h-1.83l-.17,1.51h-2.16l2-12.1h2.9l2.04,12.1ZM190.09,84.73l-.6-5.28h-.1l-.64,5.28h1.34Z"/><path class="cls-1" d="M196.74,88.46c-1.72,0-3.14-.86-3.14-3.17v-6.16c0-2.36,1.45-3.21,3.15-3.21s2.91.84,2.91,2.98c0,.62-.03,1.03-.09,1.48l-1.93-.13c.05-.27.06-.48.06-.92,0-1.11-.22-1.5-.8-1.5-.46,0-.76.35-.76.89v6.91c0,.56.3.92.78.92s.78-.32.78-1.5c0-.33-.02-.62-.08-.96l1.88-.13c.08.33.16.75.16,1.48,0,2.15-1.27,3.01-2.93,3.01Z"/><path class="cls-1" d="M206.78,78.1h-2.07v10.12h-2.55v-10.12h-2.05v-1.97h6.67v1.97Z"/><path class="cls-1" d="M214.05,85.21c0,2.28-1.51,3.2-3.21,3.2s-3.26-.92-3.26-3.2v-6.03c0-2.37,1.54-3.26,3.26-3.26s3.21.86,3.21,3.26v6.03ZM211.5,78.61c0-.49-.29-.78-.68-.78-.43,0-.7.27-.7.78v7.16c0,.51.29.78.72.78s.67-.25.67-.76v-7.18Z"/><path class="cls-1" d="M219.38,88.22c-.1-.13-.16-.37-.17-.67-.03-1.08-.05-1.53-.08-2.26-.06-1.34-.32-1.8-.91-1.8h-.33v4.73h-2.53v-12.1h3.53c1.81,0,2.86,1.1,2.86,3.09,0,1.7-.41,2.75-1.77,3.2v.05c1.32.29,1.59,1.13,1.59,2.71v.91c0,1.13.1,1.78.24,2.15h-2.44ZM218.39,78.1h-.51v3.39h.48c.65,0,.91-.49.91-1.85,0-1.23-.35-1.54-.88-1.54Z"/><path class="cls-1" d="M231.17,86.28c.14.14.33.25.61.25.08,0,.17,0,.29-.02v1.7c-.19.03-.35.05-.56.05-.78,0-1.21-.19-1.54-.56h-.02c-.38.38-.97.68-1.75.68-1.8,0-2.83-.76-2.83-2.48v-2.23c0-1.38.88-2.04,1.72-2.66-.32-.76-.76-1.85-.76-2.8v-.17c0-1.54,1.16-2.16,2.37-2.16,1.53,0,2.34.68,2.34,2.26,0,.48-.03.84-.08,1.16l-1.77-.11c.06-.25.1-.49.1-.75,0-.81-.19-.97-.54-.97-.25,0-.43.14-.43.64v.13c0,.38.1.68.3,1.3,0,0,1.05,3.06,1.54,4.52h.03c.14-.27.25-.92.25-1.67,0-.3-.03-.49-.13-.91l1.78-.13c.06.24.09.56.09.81,0,1.78-.3,3.07-1.02,4.11ZM227.8,82.9c-.17.13-.3.32-.3.54v2.39c0,.45.21.75.7.75.35,0,.6-.22.78-.48-.35-.94-.75-2.04-1.18-3.2Z"/><path class="cls-1" d="M241.28,88.22h-5.28v-12.1h2.53v10.12h2.75v1.97Z"/><path class="cls-1" d="M248.5,88.22h-2.58l-.19-1.51h-1.83l-.17,1.51h-2.16l2-12.1h2.9l2.04,12.1ZM245.44,84.73l-.6-5.28h-.1l-.64,5.28h1.34Z"/><path class="cls-1" d="M258.44,76.12l-1.73,12.1h-2.5l-.8-6.72h-.13l-.8,6.72h-2.51l-1.73-12.1h2.5l.72,7.8h.08l.88-7.8h1.88l.88,7.81h.06l.75-7.81h2.47Z"/><path class="cls-1" d="M265.84,88.22h-2.21l-2.05-6.52h-.11v6.52h-2.23v-12.1h2.45l1.83,5.63h.11v-5.63h2.21v12.1Z"/><path class="cls-1" d="M279.29,88.22h-2.53v-6.59h-.08l-1.32,6.59h-1.59l-1.35-6.54h-.1v6.54h-2.21v-12.1h3.21l1.32,6.97h.08l1.43-6.97h3.13v12.1Z"/><path class="cls-1" d="M287.07,85.21c0,2.28-1.51,3.2-3.21,3.2s-3.26-.92-3.26-3.2v-6.03c0-2.37,1.54-3.26,3.26-3.26s3.21.86,3.21,3.26v6.03ZM284.52,78.61c0-.49-.29-.78-.68-.78-.43,0-.7.27-.7.78v7.16c0,.51.29.78.72.78s.67-.25.67-.76v-7.18Z"/><path class="cls-1" d="M297.78,76.12l-1.73,12.1h-2.5l-.8-6.72h-.13l-.8,6.72h-2.51l-1.73-12.1h2.5l.72,7.8h.08l.88-7.8h1.88l.88,7.81h.06l.75-7.81h2.47Z"/><path class="cls-1" d="M303.86,88.22h-5.28v-12.1h5.25v1.97h-2.72v2.82h2.31v2.01h-2.31v3.31h2.75v1.99Z"/><path class="cls-1" d="M308.87,88.22c-.1-.13-.16-.37-.17-.67-.03-1.08-.05-1.53-.08-2.26-.06-1.34-.32-1.8-.91-1.8h-.33v4.73h-2.53v-12.1h3.53c1.81,0,2.86,1.1,2.86,3.09,0,1.7-.41,2.75-1.77,3.2v.05c1.32.29,1.59,1.13,1.59,2.71v.91c0,1.13.1,1.78.24,2.15h-2.44ZM307.88,78.1h-.51v3.39h.48c.65,0,.91-.49.91-1.85,0-1.23-.35-1.54-.88-1.54Z"/><path class="cls-1" d="M319.26,88.22c-.1-.13-.16-.37-.17-.67-.03-1.08-.05-1.53-.08-2.26-.06-1.34-.32-1.8-.91-1.8h-.33v4.73h-2.53v-12.1h3.53c1.81,0,2.86,1.1,2.86,3.09,0,1.7-.41,2.75-1.77,3.2v.05c1.32.29,1.59,1.13,1.59,2.71v.91c0,1.13.1,1.78.24,2.15h-2.44ZM318.27,78.1h-.51v3.39h.48c.65,0,.91-.49.91-1.85,0-1.23-.35-1.54-.88-1.54Z"/><path class="cls-1" d="M328.04,88.22h-5.28v-12.1h5.25v1.97h-2.72v2.82h2.31v2.01h-2.31v3.31h2.75v1.99Z"/><path class="cls-1" d="M332.42,84.02h-.86v4.2h-2.53v-12.1h3.15c2.15,0,3.2.97,3.2,3.84,0,3.01-1.18,4.06-2.96,4.06ZM331.99,78.1h-.43v3.98h.45c.54,0,.89-.53.89-2.13,0-1.45-.32-1.85-.91-1.85Z"/><path class="cls-1" d="M342.22,88.22h-2.58l-.19-1.51h-1.83l-.17,1.51h-2.16l2-12.1h2.9l2.04,12.1ZM339.16,84.73l-.6-5.28h-.1l-.64,5.28h1.34Z"/><path class="cls-1" d="M345.54,88.22h-2.53v-12.1h2.53v12.1Z"/><path class="cls-1" d="M350.97,88.22c-.1-.13-.16-.37-.17-.67-.03-1.08-.05-1.53-.08-2.26-.06-1.34-.32-1.8-.91-1.8h-.33v4.73h-2.53v-12.1h3.53c1.81,0,2.86,1.1,2.86,3.09,0,1.7-.41,2.75-1.77,3.2v.05c1.32.29,1.59,1.13,1.59,2.71v.91c0,1.13.1,1.78.24,2.15h-2.44ZM349.98,78.1h-.51v3.39h.48c.65,0,.91-.49.91-1.85,0-1.23-.35-1.54-.88-1.54Z"/><path class="cls-2" d="M117.54,68.05l-1.58-4.75,1.58-7.92V11.94h39.23l3.96,2.38-5.23,11.09-7.13-.79h-16.56v8.72h21.32v12.28h-9.35l-11.97-.79v10.54h23.69l9.43,7.61-4.68,5.07h-42.71Z"/><path class="cls-2" d="M178.4,70.43l-8.72-8.72,8.72-8.72,8.72,8.72-8.72,8.72Z"/><path class="cls-2" d="M191.87,68.05l3.8-13.39v-10.06l5.86-2.38,10.3-30.19h20.53l12.76,35.5,6.1,11.25v9.27h-14.03l-3.96-12.68h-23.06l-3.41,12.68h-14.9ZM215.41,43.16h13.47l-6.02-18.15h-1.66l-5.79,18.15Z"/><path class="cls-2" d="M264.7,70.43l-8.72-8.72,8.72-8.72,8.72,8.72-8.72,8.72Z"/><path class="cls-2" d="M309,68.84c-3.59,0-7.08-.41-10.46-1.23-3.38-.82-6.43-2.28-9.15-4.4-2.72-2.11-4.87-5.04-6.46-8.8-1.58-3.75-2.38-8.56-2.38-14.42,0-5.44.79-10.01,2.38-13.71,1.58-3.7,3.7-6.66,6.34-8.88,2.64-2.22,5.53-3.82,8.68-4.79,3.14-.98,6.3-1.47,9.47-1.47,2.69,0,5.32.21,7.89.63,2.56.42,4.42.9,5.59,1.43l8.8,7.21-7.13,11.49-13.55-6.97c-3.75,0-6.92,1.23-9.51,3.69-2.59,2.46-3.88,6.25-3.88,11.37,0,3.65.65,6.6,1.94,8.88,1.29,2.27,3.08,3.94,5.35,4.99,2.27,1.06,4.86,1.58,7.77,1.58,3.06,0,5.68-.25,7.85-.75,2.17-.5,4.07-1.11,5.71-1.82,1.64-.71,3.2-1.41,4.68-2.1v13.31c-1.85,1.16-4.31,2.25-7.37,3.25-3.06,1-7.24,1.51-12.52,1.51Z"/><path class="cls-2" d="M345.05,70.43l-8.72-8.72,8.72-8.72,8.72,8.72-8.72,8.72Z"/><path class="cls-1" d="M42.76,61.44c0-.34.12-.68.37-.93l17.78-17.78c.32-.32.77-.45,1.2-.34,2.18.54,4.58-.05,6.28-1.76s2.34-4.35,1.67-6.62c-.05-.15-.24-.2-.36-.08l-4.34,4.34c-.15.15-.37.2-.56.12-1.63-.61-2.93-1.9-3.55-3.54v-.02c-.08-.2-.03-.41.11-.57l4.34-4.33c.11-.11.07-.31-.09-.36-2.27-.68-4.82-.13-6.62,1.67s-2.28,4.1-1.76,6.28c.11.43-.02.89-.34,1.2l-17.78,17.78c-.24.24-.57.37-.9.37-2.36-.73-5.03-.16-6.89,1.7-2.68,2.68-2.68,7.03,0,9.72s7.03,2.68,9.72,0c1.86-1.86,2.43-4.51,1.71-6.86ZM37.38,67.76l-4.34-1.16-1.16-4.34,3.18-3.18,4.34,1.16,1.16,4.34-3.18,3.18Z"/><path class="cls-1" d="M58.61,68.3c2.68,2.68,7.03,2.68,9.72,0s2.68-7.03,0-9.72c-1.87-1.87-4.54-2.43-6.89-1.7-.33,0-.66-.13-.9-.37l-17.78-17.78c-.32-.32-.45-.77-.34-1.2.53-2.18-.05-4.58-1.76-6.28-1.8-1.8-4.35-2.35-6.62-1.67-.15.05-.2.24-.09.36l4.34,4.33c.15.15.2.37.12.57v.02c-.63,1.63-1.93,2.93-3.56,3.54-.2.07-.41.02-.56-.12l-4.34-4.34c-.11-.11-.31-.06-.36.08-.67,2.27-.12,4.83,1.67,6.62s4.1,2.29,6.28,1.76c.43-.11.89.02,1.2.34l17.78,17.78c.25.25.38.59.37.93-.71,2.35-.14,5,1.71,6.86ZM59.1,64.58l1.16-4.34,4.34-1.16,3.18,3.18-1.16,4.34-4.34,1.16-3.18-3.18Z"/><path class="cls-2" d="M99.65,43.53c0-.8-.23-1.14-1.02-1.35-3.26-.86-6.48-1.82-9.74-2.67-.76-.2-1.02-.58-1.27-1.26-.87-2.29-1.76-4.57-2.79-6.79-.39-.85-.45-1.45.04-2.27,1.82-3.09,3.56-6.23,5.23-9.18-3.52-3.54-6.94-6.99-10.41-10.5-3.14,1.78-6.32,3.62-9.55,5.37-.43.24-1.16.21-1.64.03-2.41-.92-4.79-1.9-7.15-2.95-.5-.23-1.05-.78-1.21-1.29-.96-3.18-1.84-6.39-2.68-9.61-.22-.83-.59-1.08-1.44-1.08-4.12.05-8.25.05-12.37,0-.94-.01-1.28.33-1.51,1.2-.82,3.18-1.75,6.32-2.58,9.49-.2.77-.61,1.09-1.34,1.36-2.37.89-4.71,1.86-7.02,2.91-.68.31-1.14.32-1.78-.05-3.18-1.85-6.39-3.64-9.64-5.48-3.29,3.3-6.53,6.57-9.81,9.8-.56.55-.36.95-.05,1.49,1.68,2.92,3.31,5.87,5.01,8.79.35.6.33,1.02.04,1.66-1.05,2.31-2.03,4.65-2.91,7.02-.3.79-.69,1.19-1.49,1.4-3.09.81-6.16,1.69-9.25,2.49-.94.24-1.32.65-1.3,1.7.07,3.9.1,7.81,0,11.71-.04,1.39.46,1.85,1.74,2.16,3.02.73,5.98,1.66,8.99,2.44.74.19,1.03.59,1.29,1.26.93,2.4,1.98,4.76,2.91,7.16.18.47.17,1.18-.07,1.61-1.61,2.96-3.31,5.88-4.93,8.83-.18.34-.27,1.03-.07,1.23,3.26,3.36,6.57,6.67,9.9,10.01,3.28-1.86,6.45-3.62,9.59-5.45.68-.4,1.16-.42,1.9-.08,2.3,1.05,4.65,2.01,7.02,2.89.76.28,1.1.66,1.3,1.41.84,3.17,1.77,6.32,2.59,9.49.23.91.64,1.18,1.54,1.15,1.75-.07,3.51-.02,5.26-.02,2.71,0,5.43,0,8.19,0,.96-3.48,1.92-6.84,2.8-10.22.27-1.02.72-1.56,1.8-1.93,2.23-.75,4.4-1.72,6.53-2.72.76-.36,1.3-.4,2.04.03,3.13,1.83,6.3,3.6,9.38,5.34,3.51-3.51,6.95-6.94,10.44-10.42-1.76-3.1-3.58-6.25-5.33-9.43-.25-.45-.34-1.18-.16-1.64.97-2.53,2.02-5.03,3.11-7.51.17-.39.64-.8,1.05-.92,3.23-.95,6.48-1.85,9.73-2.72.8-.21,1.12-.53,1.11-1.42-.05-4.17-.04-8.33,0-12.5ZM49.82,80.17c-16.77,0-30.36-13.59-30.36-30.36s13.59-30.36,30.36-30.36,30.36,13.59,30.36,30.36-13.59,30.36-30.36,30.36Z"/></svg>